<?xml version="1.0" encoding="iso-8859-1"?>
<!-- Generator: Adobe Illustrator 19.2.1, SVG Export Plug-In . SVG Version: 6.00 Build 0)  -->
<svg version="1.1" xmlns="http://www.w3.org/2000/svg" xmlns:xlink="http://www.w3.org/1999/xlink" x="0px" y="0px"
	 viewBox="0 0 30 30" style="enable-background:new 0 0 30 30;" xml:space="preserve">
<g id="Flag">
</g>
<g id="Umbrella">
</g>
<g id="Briefcase">
</g>
<g id="Box">
</g>
<g id="Magnet">
</g>
<g id="Percent">
</g>
<g id="Rocket">
</g>
<g id="Share">
</g>
<g id="Transmitter">
</g>
<g id="Record_2">
</g>
<g id="Record_1">
</g>
<g id="Anchor">
</g>
<g id="Airplane">
</g>
<g id="Car">
	<g>
		<g>
			<g>
				<path d="M28.5,23h-27C0.673,23,0,22.327,0,21.5v-6C0,13.57,1.57,12,3.5,12h23c1.93,0,3.5,1.57,3.5,3.5v6
					C30,22.327,29.327,23,28.5,23z M3.5,13C2.122,13,1,14.122,1,15.5v6C1,21.776,1.224,22,1.5,22h27c0.276,0,0.5-0.224,0.5-0.5v-6
					c0-1.378-1.122-2.5-2.5-2.5H3.5z"/>
			</g>
			<g>
				<path d="M6.5,28h-3C2.673,28,2,27.327,2,26.5v-4C2,22.224,2.224,22,2.5,22h5C7.776,22,8,22.224,8,22.5v4
					C8,27.327,7.327,28,6.5,28z M3,23v3.5C3,26.776,3.224,27,3.5,27h3C6.776,27,7,26.776,7,26.5V23H3z"/>
			</g>
			<g>
				<path d="M26.5,28h-3c-0.827,0-1.5-0.673-1.5-1.5v-4c0-0.276,0.224-0.5,0.5-0.5h5c0.276,0,0.5,0.224,0.5,0.5v4
					C28,27.327,27.327,28,26.5,28z M23,23v3.5c0,0.276,0.224,0.5,0.5,0.5h3c0.276,0,0.5-0.224,0.5-0.5V23H23z"/>
			</g>
		</g>
		<g>
			<path d="M27.073,13.077c-0.194,0-0.379-0.114-0.46-0.304l-3.358-7.862C23.019,4.357,22.478,4,21.876,4H8.124
				C7.522,4,6.981,4.357,6.745,4.911l-3.358,7.862c-0.109,0.254-0.404,0.372-0.656,0.264c-0.254-0.108-0.372-0.402-0.264-0.656
				l3.358-7.862C6.219,3.596,7.121,3,8.124,3h13.752c1.003,0,1.905,0.596,2.299,1.518l3.358,7.862
				c0.108,0.254-0.01,0.548-0.264,0.656C27.206,13.064,27.139,13.077,27.073,13.077z"/>
		</g>
		<g>
			<path d="M6,21c-1.654,0-3-1.346-3-3s1.346-3,3-3s3,1.346,3,3S7.654,21,6,21z M6,16c-1.103,0-2,0.897-2,2s0.897,2,2,2s2-0.897,2-2
				S7.103,16,6,16z"/>
		</g>
		<g>
			<path d="M24,21c-1.654,0-3-1.346-3-3s1.346-3,3-3s3,1.346,3,3S25.654,21,24,21z M24,16c-1.103,0-2,0.897-2,2s0.897,2,2,2
				s2-0.897,2-2S25.103,16,24,16z"/>
		</g>
		<g>
			<path d="M18.5,19h-7c-0.276,0-0.5-0.224-0.5-0.5s0.224-0.5,0.5-0.5h7c0.276,0,0.5,0.224,0.5,0.5S18.776,19,18.5,19z"/>
		</g>
		<g>
			<path d="M18.5,17h-7c-0.276,0-0.5-0.224-0.5-0.5s0.224-0.5,0.5-0.5h7c0.276,0,0.5,0.224,0.5,0.5S18.776,17,18.5,17z"/>
		</g>
	</g>
</g>
<g id="Newsfeed">
</g>
<g id="Wifi_Tethering">
</g>
<g id="No_Wifi_Tethering">
</g>
<g id="Bar_Chart_2">
</g>
<g id="Shop">
</g>
<g id="Alarm">
</g>
<g id="Sim_Card">
</g>
<g id="Radar">
</g>
<g id="Hand_2">
</g>
<g id="Palette">
</g>
<g id="Cake">
</g>
<g id="Blende">
</g>
<g id="Feather_Pen">
</g>
<g id="Ticket">
</g>
<g id="Medal">
</g>
<g id="Mouse_Pointer_1">
</g>
<g id="Mouse_Pointer_2">
</g>
<g id="Fingerprint">
</g>
<g id="Earth">
</g>
</svg>
